<?xml version="1.0" encoding="UTF-8"?>
<svg width="512px" height="512px" viewBox="0 0 512 512" version="1.1" xmlns="http://www.w3.org/2000/svg" xmlns:xlink="http://www.w3.org/1999/xlink">
    <title>favicon</title>
    <g id="favicon" stroke="none" stroke-width="1" fill="none" fill-rule="evenodd">
        <g id="Group" transform="translate(256.000000, 256.000000) rotate(-45.000000) translate(-256.000000, -256.000000) translate(23.540230, 19.000000)">
            <rect id="Rectangle-Copy" stroke="#A7D6E8" fill="#FF7E00" x="0.5" y="0.5" width="463.91954" height="473" rx="231.95977"></rect>
            <g id="RC" transform="translate(82.459770, 143.000000)" fill="#FFFFFF" fill-rule="nonzero">
                <path d="M129.187602,178 C98.1098423,178 79.0995106,163.664773 72.1566069,134.994318 L65.9575856,109.536932 L54.3034258,109.536932 L54.3034258,174.045455 L0,174.045455 L0,4 L75.132137,4 C89.348559,4 101.870582,6.10085227 112.698206,10.3025568 C123.525829,14.5042614 131.915171,20.3948864 137.866232,27.9744318 C143.817292,35.5539773 146.792822,44.2869318 146.792822,54.1732955 C146.792822,65.2130682 144.10658,74.4815341 138.734095,81.9786932 C133.36161,89.4758523 125.054921,95.6136364 113.814029,100.392045 C114.97118,106.653409 116.293638,112.338068 117.781403,117.446023 C119.76509,123.707386 122.492659,128.073864 125.964111,130.545455 C129.435563,133.017045 134.477433,134.252841 141.089723,134.252841 C143.404024,134.252841 147.040783,133.923295 152,133.264205 L152,173.551136 C144.23056,176.517045 136.626427,178 129.187602,178 Z M63.725938,74.9346591 C75.9586732,74.9346591 84.5959761,73.5752841 89.6378467,70.8565341 C94.6797172,68.1377841 97.2006525,63.4829545 97.2006525,56.8920455 C97.2006525,51.2897727 95.1343121,47.2116477 91.0016313,44.6576705 C86.8689505,42.1036932 80.3393148,40.8267045 71.4127243,40.8267045 L54.3034258,40.8267045 L54.3034258,74.9346591 L63.725938,74.9346591 Z" id="Shape"></path>
                <path d="M251.846715,178 C235.301703,178 220.287105,174.080204 206.80292,166.240612 C193.318735,158.40102 182.647202,147.673157 174.788321,134.057024 C166.92944,120.44089 163,105.380621 163,88.876217 C163,72.0417246 166.805353,56.8576727 174.416058,43.3240612 C182.026764,29.7904497 192.450122,19.18637 205.686131,11.511822 C218.922141,3.83727399 233.812652,0 250.357664,0 C259.291971,0 268.060827,1.07278628 276.664234,3.21835883 C285.26764,5.36393139 292.63017,8.41724618 298.751825,12.3783032 L292.051095,50.7510431 C280.138686,46.294854 269.384428,44.0667594 259.788321,44.0667594 C246.552311,44.0667594 236.377129,47.9040334 229.262774,55.5785814 C222.148418,63.2531293 218.591241,74.2698192 218.591241,88.6286509 C218.591241,102.657395 222.355231,113.591562 229.883212,121.431154 C237.411192,129.270746 247.875912,133.190542 261.277372,133.190542 C266.406326,133.190542 271.20438,132.69541 275.671533,131.705146 C280.138686,130.714882 285.59854,128.899397 292.051095,126.258693 L299,165.374131 C284.605839,173.791377 268.888078,178 251.846715,178 Z" id="Path"></path>
            </g>
        </g>
    </g>
</svg>